<svg xmlns="http://www.w3.org/2000/svg"  viewBox="0 0 124 124" width="100px" height="100px"><path d="M110.973,75.565c-3.559,0-6.72,1.689-8.738,4.295l-9.148-4.62V48.77l9.114-4.603c2.016,2.631,5.193,4.34,8.772,4.34	c6.08,0,11.027-4.912,11.027-10.949s-4.947-10.949-11.027-10.949c-6.081,0-11.028,4.912-11.028,10.949	c0,1.057,0.16,2.076,0.443,3.044l-9.317,4.705L64.166,31.87v-10.16c5.128-0.938,9.028-5.401,9.028-10.76	C73.194,4.912,68.247,0,62.167,0S51.139,4.912,51.139,10.949c0,5.358,3.9,9.822,9.027,10.76V31.87L33.213,45.332L23.54,40.86	c0.333-1.043,0.515-2.152,0.515-3.303c0-6.037-4.947-10.949-11.027-10.949S2,31.521,2,37.558s4.947,10.949,11.028,10.949	c3.48,0,6.583-1.613,8.606-4.121l9.613,4.444v26.395l-9.394,4.745c-2.013-2.672-5.214-4.412-8.825-4.412	C6.947,75.558,2,80.47,2,86.507s4.947,10.949,11.028,10.949s11.027-4.912,11.027-10.949c0-1.026-0.153-2.015-0.42-2.957l9.633-4.865	l26.898,13.435v10.172c-5.128,0.938-9.027,5.402-9.027,10.76c0,6.037,4.947,10.949,11.027,10.949s11.028-4.912,11.028-10.949	c0-5.358-3.9-9.822-9.028-10.76V92.12L91.05,78.692l9.352,4.723c-0.293,0.984-0.457,2.023-0.457,3.099	c0,6.037,4.947,10.949,11.028,10.949c6.08,0,11.027-4.912,11.027-10.949S117.053,75.565,110.973,75.565z M35.247,50.785	l16.337,8.159c-0.284,0.97-0.444,1.991-0.444,3.05c0,5.358,3.9,9.822,9.027,10.76v14.894l-24.92-12.446V50.785z M62.167,68.944	c-3.875,0-7.027-3.117-7.027-6.949s3.152-6.949,7.027-6.949c3.875,0,7.028,3.117,7.028,6.949S66.042,68.944,62.167,68.944z M110.973,30.608c3.875,0,7.027,3.117,7.027,6.949s-3.152,6.949-7.027,6.949s-7.028-3.117-7.028-6.949	S107.098,30.608,110.973,30.608z M55.139,10.949C55.139,7.117,58.292,4,62.167,4c3.875,0,7.028,3.117,7.028,6.949	s-3.152,6.949-7.028,6.949C58.292,17.898,55.139,14.781,55.139,10.949z M62.167,35.342l24.445,12.209l-15.677,7.83	c-2.016-2.628-5.191-4.335-8.768-4.335s-6.751,1.707-8.767,4.335l-15.677-7.83L62.167,35.342z M13.028,44.507	C9.153,44.507,6,41.39,6,37.558s3.153-6.949,7.028-6.949s7.027,3.117,7.027,6.949S16.903,44.507,13.028,44.507z M13.028,93.456	C9.153,93.456,6,90.339,6,86.507s3.153-6.949,7.028-6.949s7.027,3.117,7.027,6.949S16.903,93.456,13.028,93.456z M69.194,113.051	c0,3.832-3.152,6.949-7.028,6.949c-3.875,0-7.027-3.117-7.027-6.949s3.152-6.949,7.027-6.949	C66.042,106.102,69.194,109.219,69.194,113.051z M64.167,72.755c5.128-0.938,9.027-5.402,9.027-10.76c0-1.059-0.16-2.081-0.444-3.05	l16.337-8.16v24.417l-24.92,12.446V72.755z M110.973,93.464c-3.875,0-7.028-3.117-7.028-6.949s3.153-6.949,7.028-6.949	S118,82.683,118,86.515S114.848,93.464,110.973,93.464z"/></svg>