<svg xmlns="http://www.w3.org/2000/svg"  viewBox="0 0 24 24" width="100px" height="100px"><path d="M19.806,4.398c0-0.017,0.004-0.033,0.004-0.05C19.81,1.95,17.716,0,15.143,0C13.956,0,12.847,0.411,12,1.137	C11.153,0.411,10.044,0,8.857,0C6.284,0,4.19,1.95,4.19,4.348c0,0.017,0.004,0.033,0.004,0.05C1.808,4.831,0,6.786,0,9.13	c0,1.333,0.58,2.576,1.59,3.476c-0.356,0.699-0.542,1.467-0.542,2.264c0,2.036,1.233,3.854,3.143,4.74c0,0.015,0,0.029,0,0.043	C4.19,22.05,6.284,24,8.857,24c1.187,0,2.296-0.411,3.143-1.137C12.847,23.589,13.956,24,15.143,24c2.573,0,4.667-1.95,4.667-4.348	c0-0.014,0-0.028,0-0.043c1.909-0.886,3.143-2.704,3.143-4.74c0-0.797-0.186-1.564-0.542-2.264c1.01-0.9,1.59-2.143,1.59-3.476	C24,6.786,22.192,4.831,19.806,4.398z M20.558,11.491c-0.251,0.146-0.426,0.395-0.479,0.68c-0.053,0.286,0.021,0.581,0.202,0.808	c0.439,0.549,0.671,1.203,0.671,1.891c0,1.417-1.011,2.674-2.515,3.127c-0.508,0.153-0.808,0.675-0.684,1.191	c0.037,0.154,0.056,0.314,0.056,0.465c0,1.294-1.196,2.348-2.667,2.348c-0.694,0-1.353-0.249-1.845-0.669l3.337-5.368	C16.754,15.985,16.875,16,17,16c1.103,0,2-0.897,2-2s-0.897-2-2-2s-2,0.897-2,2c0,0.431,0.14,0.827,0.372,1.154l-2.622,4.218v-8.521	C13.482,10.554,14,9.838,14,9c0-1.103-0.897-2-2-2s-2,0.897-2,2c0,0.838,0.518,1.554,1.25,1.851v8.521l-2.622-4.218	C8.86,14.827,9,14.431,9,14c0-1.103-0.897-2-2-2s-2,0.897-2,2s0.897,2,2,2c0.125,0,0.246-0.015,0.364-0.037l3.337,5.368	C10.21,21.751,9.551,22,8.857,22c-1.47,0-2.667-1.053-2.667-2.348c0-0.15,0.02-0.311,0.056-0.465	c0.124-0.516-0.176-1.038-0.684-1.191c-1.504-0.453-2.515-1.709-2.515-3.127c0-0.688,0.232-1.342,0.671-1.891	c0.181-0.227,0.255-0.522,0.202-0.808c-0.053-0.285-0.228-0.534-0.479-0.68C2.539,10.963,2,10.081,2,9.13	c0-1.559,1.431-2.826,3.19-2.826c0.594,0,1.095,0.418,1.095,0.913c0,0.552,0.448,1,1,1s1-0.448,1-1c0-1.268-0.87-2.338-2.074-2.737	C6.209,4.434,6.19,4.394,6.19,4.348C6.19,3.053,7.387,2,8.857,2c0.944,0,1.828,0.454,2.307,1.184c0.369,0.564,1.304,0.564,1.673,0	C13.315,2.454,14.199,2,15.143,2c1.47,0,2.667,1.053,2.667,2.348c0,0.047-0.018,0.087-0.021,0.132	c-1.204,0.399-2.074,1.469-2.074,2.737c0,1.606,1.389,2.913,3.095,2.913c0.552,0,1-0.448,1-1s-0.448-1-1-1	c-0.594,0-1.095-0.418-1.095-0.913s0.501-0.913,1.095-0.913c1.759,0,3.19,1.268,3.19,2.826C22,10.081,21.461,10.963,20.558,11.491z"/></svg>